<svg xmlns="http://www.w3.org/2000/svg" xmlns:xlink="http://www.w3.org/1999/xlink" width="1080" zoomAndPan="magnify" viewBox="0 0 810 809.999993" height="1080" preserveAspectRatio="xMidYMid meet" version="1.0"><defs><clipPath id="d9d3625d4e"><path d="M 15.070312 16.578125 L 758 16.578125 L 758 782.328125 L 15.070312 782.328125 Z M 15.070312 16.578125 " clip-rule="nonzero"/></clipPath></defs><rect x="-81" width="972" fill="#ffffff" y="-80.999999" height="971.999992" fill-opacity="1"/><rect x="-81" width="972" fill="#ffffff" y="-80.999999" height="971.999992" fill-opacity="1"/><g clip-path="url(#d9d3625d4e)"><path fill="#000000" d="M 16.640625 782.082031 C 17 782.1875 17.355469 782.164062 17.707031 782.019531 C 18.054688 781.871094 18.316406 781.632812 18.496094 781.300781 C 19.285156 779.667969 19.9375 777.964844 20.730469 776.335938 C 24.476562 768.648438 28.144531 760.925781 32.046875 753.316406 C 33.820312 749.898438 35.050781 746.296875 35.742188 742.507812 C 36.433594 738.722656 36.554688 734.917969 36.101562 731.09375 C 35.6875 727.292969 35.210938 723.5 34.617188 719.726562 C 33.121094 710.191406 31.890625 700.628906 31.65625 690.964844 C 31.476562 685.308594 31.851562 679.6875 32.789062 674.109375 C 34.015625 667.296875 35.582031 660.566406 37.488281 653.917969 C 38.238281 651.183594 38.644531 648.402344 38.699219 645.570312 C 38.757812 642.738281 38.460938 639.945312 37.820312 637.1875 C 36.496094 631.117188 34.417969 625.292969 32.386719 619.449219 C 30.554688 614.292969 29.257812 609 28.496094 603.582031 C 27.320312 595.078125 26.972656 586.542969 27.460938 577.972656 C 28.242188 565.074219 29.457031 552.207031 30.375 539.324219 C 31.273438 526.78125 31.890625 514.226562 30.585938 501.683594 C 29.03125 486.585938 28.953125 471.578125 31.554688 456.523438 C 32.667969 450.074219 32.972656 443.449219 31.25 436.992188 C 28.859375 428.03125 28.757812 418.984375 30.089844 409.90625 C 31.246094 401.574219 31.433594 393.222656 30.644531 384.851562 C 30.261719 380.667969 30.296875 376.484375 30.75 372.308594 C 31.351562 366.890625 32.007812 361.46875 32.679688 356.054688 C 32.71875 355.734375 33.019531 355.445312 33.304688 354.957031 C 35.496094 355.902344 36.164062 358.070312 37.289062 359.855469 C 38.167969 361.230469 38.847656 362.722656 39.769531 364.078125 C 40.351562 364.949219 42.152344 364.695312 42.5625 363.757812 C 42.800781 363.261719 42.972656 362.742188 43.078125 362.203125 C 43.667969 358.960938 43.84375 355.699219 43.597656 352.414062 C 43.058594 346.960938 41.917969 341.636719 40.167969 336.445312 C 38.078125 330.039062 35.636719 323.773438 32.839844 317.644531 C 30.070312 311.515625 28.855469 305.1875 29.839844 298.507812 C 30.964844 290.894531 31.28125 283.292969 29.929688 275.667969 C 29.800781 274.761719 29.757812 273.851562 29.800781 272.941406 C 29.800781 272.257812 29.726562 271.453125 30.75 271.304688 C 31.832031 271.683594 32.488281 272.597656 33.125 273.460938 C 34.75 275.652344 36.289062 277.902344 37.867188 280.128906 C 38.648438 281.347656 39.496094 282.519531 40.40625 283.644531 C 40.558594 283.824219 40.742188 283.960938 40.957031 284.054688 C 41.167969 284.148438 41.394531 284.195312 41.628906 284.1875 C 41.863281 284.183594 42.082031 284.128906 42.292969 284.023438 C 42.5 283.917969 42.675781 283.773438 42.820312 283.585938 C 43.410156 282.90625 43.875 282.144531 44.214844 281.308594 C 45.707031 277.949219 46.585938 274.4375 46.859375 270.769531 C 47.132812 267.105469 46.777344 263.5 45.796875 259.957031 C 43.835938 252.542969 41.371094 245.332031 37.777344 238.535156 C 35.703125 234.613281 34.355469 230.574219 34.785156 225.996094 C 35.089844 222.6875 34.121094 219.507812 32.824219 216.453125 C 32.203125 214.984375 31.207031 213.625 31.359375 211.75 C 33.144531 211.054688 34.992188 211.398438 36.726562 211.367188 C 39.195312 211.324219 41.621094 210.957031 43.996094 210.273438 C 46.371094 209.589844 48.613281 208.605469 50.730469 207.328125 C 60.523438 201.527344 66.539062 192.902344 68.785156 181.835938 C 69.863281 176.507812 70.386719 170.96875 69.554688 165.53125 C 68.25 157.003906 70.453125 149.335938 74.359375 141.910156 C 75.359375 139.96875 76.59375 138.195312 78.0625 136.582031 C 79.53125 134.96875 81.183594 133.578125 83.023438 132.40625 C 91.152344 127.109375 97.210938 119.945312 100.0625 110.449219 C 100.773438 108.128906 102.0625 106.191406 103.921875 104.640625 C 106.335938 102.5625 108.042969 99.925781 108.378906 96.726562 C 108.695312 93.773438 110.316406 92.226562 112.882812 91.199219 C 119.300781 88.636719 123.554688 83.792969 126.679688 77.8125 C 127.019531 77.164062 127.390625 76.535156 127.667969 75.859375 C 128.019531 74.90625 128.585938 74.101562 129.367188 73.445312 C 130.148438 72.792969 131.039062 72.375 132.039062 72.195312 C 134.339844 71.675781 136.75 71.019531 138.390625 69.234375 C 140.464844 66.988281 142.96875 66.460938 145.769531 66.363281 C 147.59375 66.300781 149.402344 66.050781 151.222656 66.046875 C 161.9375 66.046875 172.695312 65.148438 183.277344 67.746094 C 184.351562 67.960938 185.433594 68.070312 186.53125 68.070312 C 200.132812 68.589844 211.429688 63.546875 220.382812 53.445312 C 225.363281 47.835938 229.511719 41.636719 231.972656 34.449219 C 232.148438 33.929688 232.351562 33.410156 232.570312 32.929688 C 232.785156 32.414062 233.121094 31.992188 233.574219 31.664062 C 234.027344 31.339844 234.53125 31.152344 235.089844 31.109375 C 236.492188 30.898438 237.097656 31.835938 237.460938 32.886719 C 238.761719 36.625 241.699219 37.558594 245.242188 37.59375 C 247.613281 37.601562 249.957031 37.351562 252.277344 36.839844 C 258.324219 35.546875 264.433594 34.640625 270.597656 34.125 C 283.046875 33.046875 295.3125 34.46875 307.59375 35.886719 C 316.664062 36.925781 325.695312 37.59375 334.773438 36.109375 C 339.792969 35.289062 344.820312 34.449219 349.875 33.851562 C 361.46875 32.488281 373.0625 32.054688 384.6875 33.71875 C 395.738281 35.375 406.785156 35.324219 417.820312 33.5625 C 424.980469 32.382812 432.195312 31.652344 439.515625 33.105469 C 448.375 34.847656 457.234375 34.859375 466.101562 33.140625 C 470.300781 32.347656 474.335938 32.289062 478.398438 33.757812 C 479.566406 34.183594 480.898438 34.183594 482.160156 34.339844 C 487.480469 34.929688 492.703125 34.464844 497.832031 32.9375 C 506.164062 30.59375 514.308594 31.007812 522.484375 33.675781 C 530.902344 36.417969 539.601562 36.882812 548.390625 36.199219 C 552.019531 35.917969 555.652344 35.527344 559.242188 35.066406 C 571.242188 33.464844 583.183594 33.8125 595.070312 36.105469 C 601.78125 37.457031 608.449219 37.28125 615.078125 35.585938 C 619.65625 34.351562 624.308594 33.539062 629.035156 33.15625 C 636.332031 32.636719 643.558594 32.84375 650.671875 34.875 C 654.101562 35.871094 657.601562 36.316406 661.171875 36.207031 C 664.742188 36.09375 668.210938 35.433594 671.570312 34.226562 C 681.003906 30.945312 690.765625 30.507812 700.664062 31.457031 C 712.464844 32.589844 724.273438 32.726562 735.9375 29.859375 C 740.882812 28.644531 745.867188 27.605469 750.621094 25.707031 C 752.828125 24.835938 754.976562 23.839844 756.6875 22.132812 C 757.644531 21.179688 758.128906 20.019531 757.679688 18.660156 C 757.226562 17.296875 756.125 16.675781 754.757812 16.632812 C 752.761719 16.570312 750.757812 16.554688 748.757812 16.554688 L 88.257812 16.578125 C 71.699219 16.578125 55.144531 16.65625 38.613281 16.609375 C 35.871094 16.597656 33.175781 16.957031 30.535156 17.6875 C 27.890625 18.421875 25.394531 19.5 23.050781 20.921875 C 18.417969 23.640625 15.945312 27.605469 15.472656 32.851562 C 15.269531 35.019531 15.320312 37.214844 15.320312 39.417969 C 15.285156 285.742188 15.269531 532.074219 15.269531 778.417969 C 15.269531 779.144531 15.269531 779.871094 15.300781 780.59375 C 15.3125 780.972656 15.445312 781.300781 15.699219 781.582031 C 15.949219 781.863281 16.265625 782.03125 16.640625 782.082031 Z M 31.351562 228.523438 C 31.101562 231.117188 31.777344 233.589844 32.84375 235.941406 C 33.753906 237.929688 34.695312 239.894531 35.65625 241.859375 C 39.136719 248.917969 41.621094 256.3125 43.109375 264.042969 C 44.019531 268.785156 43.660156 273.386719 41.554688 277.800781 C 39.726562 277.28125 39.296875 275.753906 38.472656 274.628906 C 36.476562 271.785156 34.1875 269.207031 31.605469 266.886719 C 30.785156 266.171875 29.875 265.585938 28.882812 265.140625 C 28.664062 265.050781 28.441406 265.007812 28.207031 265.011719 C 27.976562 265.015625 27.753906 265.066406 27.542969 265.167969 C 27.328125 265.265625 27.148438 265.402344 26.996094 265.578125 C 26.839844 265.753906 26.730469 265.953125 26.660156 266.175781 C 26.351562 267.035156 26.207031 267.917969 26.230469 268.828125 C 26.125 272.296875 26.320312 275.746094 26.820312 279.175781 C 27.554688 284.070312 27.570312 288.96875 26.863281 293.871094 C 26.765625 294.59375 26.65625 295.3125 26.546875 296.03125 C 25.90625 299.917969 25.84375 303.816406 26.367188 307.722656 C 26.890625 311.628906 27.972656 315.375 29.613281 318.957031 C 32.277344 324.75 34.605469 330.675781 36.601562 336.730469 C 38.253906 341.5625 39.375 346.515625 39.960938 351.59375 C 40.058594 352.496094 40.089844 353.402344 40.050781 354.3125 C 39.984375 354.667969 39.789062 354.921875 39.457031 355.070312 C 39.101562 355.132812 38.796875 355.035156 38.539062 354.78125 C 37.464844 353.542969 36.515625 352.183594 35.429688 351 C 34.324219 349.792969 33.140625 348.679688 31.871094 347.652344 C 31.613281 347.449219 31.324219 347.320312 31 347.273438 C 30.675781 347.226562 30.359375 347.261719 30.054688 347.382812 C 29.75 347.503906 29.496094 347.695312 29.296875 347.953125 C 29.09375 348.210938 28.96875 348.5 28.921875 348.824219 C 28.777344 350.089844 28.742188 351.355469 28.8125 352.625 C 28.984375 357.554688 28.648438 362.445312 27.800781 367.304688 C 26.867188 372.710938 26.601562 378.152344 27.003906 383.625 C 27.800781 392.539062 27.808594 401.425781 26.484375 410.316406 C 25.035156 419.617188 25.480469 428.824219 27.824219 437.941406 C 29.378906 444.039062 28.757812 450.242188 27.980469 456.398438 C 27.429688 460.734375 26.675781 465.042969 26.265625 469.378906 C 25.230469 480.117188 25.867188 490.839844 26.910156 501.558594 C 28.046875 513.203125 27.714844 524.839844 26.867188 536.472656 C 25.867188 550.269531 24.378906 564.039062 23.6875 577.851562 C 22.9375 592.824219 23.996094 607.671875 29.285156 621.972656 C 31.113281 626.914062 32.496094 632.019531 33.953125 637.09375 C 34.722656 639.828125 35.085938 642.617188 35.046875 645.457031 C 35.007812 648.296875 34.5625 651.074219 33.722656 653.785156 C 31.761719 660.425781 30.222656 667.164062 29.105469 673.996094 C 28.058594 680.480469 27.699219 687.007812 28.023438 693.570312 C 28.542969 705.253906 30.664062 716.710938 32.273438 728.238281 C 33.519531 737.199219 32.503906 745.585938 28.078125 753.589844 C 25.125 758.808594 22.628906 764.273438 19.9375 769.636719 L 18.902344 769.558594 L 18.902344 763.695312 C 18.902344 641.160156 18.902344 518.621094 18.902344 396.078125 C 18.902344 333.808594 18.882812 271.539062 18.847656 209.265625 C 18.847656 207.804688 18.847656 206.351562 18.847656 204.894531 C 18.90625 200.589844 18.96875 200.605469 23.144531 202.421875 C 24.8125 203.152344 25.832031 203.980469 25.738281 206.019531 C 25.613281 209.394531 27.085938 212.410156 28.507812 215.363281 C 30.558594 219.539062 31.78125 223.816406 31.351562 228.523438 Z M 222.625 29.476562 C 225.457031 19.449219 222.332031 20.871094 233.285156 20.863281 C 402.523438 20.828125 571.757812 20.828125 740.996094 20.863281 C 743.363281 20.863281 745.726562 20.90625 748.085938 20.996094 C 748.3125 20.996094 748.714844 21.410156 748.699219 21.613281 C 748.65625 21.972656 748.46875 22.238281 748.144531 22.40625 C 745.203125 23.335938 742.273438 24.320312 739.285156 25.078125 C 728.089844 27.914062 716.78125 29.148438 705.214844 27.820312 C 700.347656 27.265625 695.402344 27.34375 690.496094 27.234375 C 684.8125 27.132812 679.246094 27.882812 673.792969 29.480469 C 672.398438 29.886719 670.964844 30.199219 669.601562 30.683594 C 664.113281 32.65625 658.5625 32.632812 652.949219 31.359375 C 650.289062 30.757812 647.621094 30.1875 644.953125 29.609375 C 637.324219 27.976562 629.734375 29.007812 622.167969 30.097656 C 619.109375 30.539062 616.085938 31.230469 613.082031 31.96875 C 607.320312 33.375 601.566406 33.28125 595.765625 32.191406 C 582.796875 29.75 569.757812 29.703125 556.652344 31.335938 C 548.726562 32.320312 540.765625 33.238281 532.722656 31.941406 C 528.769531 31.324219 524.878906 30.433594 521.050781 29.261719 C 517.652344 28.175781 514.167969 27.570312 510.601562 27.441406 C 507.035156 27.316406 503.515625 27.671875 500.046875 28.515625 C 497.75 29.035156 495.378906 29.402344 493.105469 29.941406 C 490.621094 30.566406 488.09375 30.855469 485.53125 30.804688 C 482.96875 30.753906 480.457031 30.367188 477.996094 29.648438 C 474.105469 28.476562 470.171875 28.3125 466.199219 29.160156 C 457.519531 30.828125 448.835938 30.867188 440.140625 29.273438 C 433.632812 28.167969 427.117188 28.140625 420.601562 29.191406 C 411.78125 30.523438 402.894531 31.371094 393.953125 30.652344 C 389.242188 30.28125 384.53125 29.820312 379.847656 29.183594 C 376.597656 28.738281 373.335938 28.53125 370.058594 28.5625 C 359.847656 28.628906 349.714844 29.550781 339.660156 31.324219 C 329.75 33.191406 319.796875 33.46875 309.800781 32.148438 C 301.699219 31.03125 293.523438 30.320312 285.355469 29.820312 C 274.980469 29.167969 264.664062 30.492188 254.449219 32.445312 C 251.597656 32.988281 248.742188 33.507812 245.855469 33.863281 C 243.453125 34.15625 241.5625 33.300781 240.667969 30.835938 C 240.46875 30.328125 240.230469 29.839844 239.957031 29.367188 C 238.917969 27.503906 237.363281 26.863281 235.359375 27.390625 C 232.019531 28.273438 228.703125 29.238281 225.390625 30.199219 C 224.539062 30.445312 223.734375 30.933594 222.796875 30.46875 C 222.769531 30.121094 222.542969 29.757812 222.625 29.476562 Z M 227.210938 33.507812 C 227.453125 33.742188 227.601562 34.027344 227.648438 34.363281 C 227.699219 34.695312 227.640625 35.011719 227.472656 35.304688 C 223.003906 44.871094 217.125 53.332031 207.84375 58.804688 C 200.800781 62.957031 193.199219 65.078125 184.902344 63.8125 C 172.449219 61.898438 159.886719 62.464844 147.359375 62.316406 C 145.71875 62.328125 144.09375 62.472656 142.476562 62.753906 C 140.667969 63.039062 138.894531 63.589844 137.601562 64.988281 C 135.660156 67.09375 133.171875 68.171875 130.488281 68.769531 C 127.566406 69.425781 125.683594 71.113281 124.460938 73.773438 C 123.691406 75.421875 122.828125 77.015625 121.867188 78.558594 C 119.433594 82.535156 116.226562 85.671875 111.898438 87.546875 C 110.894531 87.980469 109.941406 88.515625 108.941406 88.941406 C 108.421875 89.132812 107.941406 89.394531 107.5 89.722656 C 107.054688 90.050781 106.667969 90.433594 106.332031 90.871094 C 105.996094 91.3125 105.730469 91.789062 105.53125 92.300781 C 105.332031 92.816406 105.207031 93.347656 105.160156 93.898438 C 104.757812 97.78125 102.886719 100.726562 99.972656 103.15625 C 98.078125 104.710938 97.113281 106.882812 96.417969 109.175781 C 93.757812 117.917969 88.328125 124.65625 80.730469 129.421875 C 78.726562 130.679688 76.925781 132.183594 75.332031 133.933594 C 73.738281 135.683594 72.40625 137.613281 71.339844 139.730469 C 69.679688 142.769531 68.296875 145.933594 67.191406 149.21875 C 65.714844 153.589844 65.195312 158.074219 65.632812 162.667969 C 66.132812 167.574219 66.132812 172.476562 65.632812 177.382812 C 64.476562 189.488281 58.546875 198.570312 47.996094 204.582031 C 43.085938 207.375 37.730469 208.09375 32.179688 207.59375 C 31.46875 207.472656 30.816406 207.214844 30.214844 206.816406 C 29.996094 206.683594 29.898438 206.160156 29.933594 205.839844 C 29.96875 205.480469 30.132812 205.195312 30.421875 204.984375 C 30.910156 204.734375 31.429688 204.589844 31.976562 204.550781 C 33.429688 204.441406 34.894531 204.484375 36.335938 204.328125 C 46.710938 203.191406 53.660156 197.289062 58.214844 188.316406 C 61.757812 181.339844 63.15625 173.898438 61.847656 166.078125 C 61.714844 164.808594 61.507812 163.554688 61.226562 162.308594 C 59.777344 157.488281 60.707031 152.964844 62.695312 148.523438 C 64.703125 143.824219 67.089844 139.328125 69.847656 135.027344 C 71.261719 132.886719 72.617188 130.722656 73.144531 128.195312 C 73.570312 126.1875 74.753906 125.082031 76.621094 124.417969 C 84.402344 121.582031 88.355469 115.636719 89.839844 107.765625 C 90.003906 106.871094 90.171875 105.976562 90.390625 105.097656 C 90.910156 103.09375 91.8125 101.382812 93.714844 100.324219 C 94.660156 99.78125 95.5625 99.167969 96.421875 98.492188 C 98.582031 96.863281 99.792969 94.75 99.769531 91.96875 C 99.738281 90.332031 99.808594 88.695312 99.988281 87.066406 C 100.203125 85.195312 100.914062 84.582031 102.757812 84.296875 C 102.929688 84.273438 103.101562 84.261719 103.273438 84.261719 C 110.570312 84.171875 114.953125 79.988281 117.929688 73.832031 C 118.265625 73.183594 118.550781 72.519531 118.796875 71.832031 C 120.144531 67.679688 122.53125 64.941406 127.296875 64.707031 C 128.515625 64.640625 129.644531 64.289062 130.683594 63.652344 C 131.722656 63.019531 132.550781 62.175781 133.164062 61.125 C 134.996094 58.011719 137.71875 57.675781 140.691406 58.34375 C 147.167969 59.800781 153.71875 59.339844 160.25 59.464844 C 161.523438 59.550781 162.796875 59.550781 164.066406 59.464844 C 169.359375 58.851562 174.574219 59.25 179.714844 60.65625 C 185.035156 62.09375 190.164062 61.226562 195.277344 59.617188 C 205.6875 56.308594 213.519531 49.726562 218.292969 40.007812 C 220.316406 35.78125 223.511719 34.558594 227.210938 33.507812 Z M 213.433594 23.128906 C 213.632812 21.398438 214.210938 20.964844 215.9375 20.90625 C 217.359375 20.859375 218.859375 20.5625 220.386719 21.886719 C 217.582031 35.867188 211.917969 47.988281 197.957031 54.46875 C 191.464844 57.492188 184.675781 58.285156 177.726562 56.464844 C 173.652344 55.433594 169.527344 55.148438 165.347656 55.605469 C 158.113281 56.28125 150.824219 56.3125 143.59375 54.972656 C 142.519531 54.777344 141.417969 54.765625 140.339844 54.59375 C 136.257812 53.964844 132.78125 54.652344 130.4375 58.539062 C 129.347656 60.351562 127.480469 61.171875 125.363281 61.328125 C 120.636719 61.683594 117.773438 64.390625 116.058594 68.59375 C 115.324219 70.460938 114.476562 72.269531 113.515625 74.027344 C 111.332031 77.921875 108.1875 80.636719 103.5 80.445312 C 98.605469 80.242188 96.28125 82.464844 96.066406 88.324219 C 96.050781 88.507812 96.050781 88.6875 96.066406 88.871094 C 96.546875 92.722656 95.21875 95.558594 91.617188 97.324219 C 88.796875 98.707031 87.421875 101.253906 86.753906 104.222656 C 86.4375 105.640625 86.234375 107.082031 85.882812 108.5 C 84.496094 114.351562 81.421875 118.910156 75.554688 120.929688 C 72.09375 122.121094 70.070312 124.199219 69.417969 127.8125 C 69.058594 129.800781 67.808594 131.445312 66.730469 133.140625 C 63.714844 137.921875 61.121094 142.917969 58.949219 148.136719 C 56.988281 152.808594 56.355469 157.511719 57.578125 162.527344 C 58.457031 165.898438 58.816406 169.328125 58.660156 172.808594 C 58.503906 176.292969 57.835938 179.671875 56.65625 182.953125 C 55.191406 186.925781 53.054688 190.496094 50.242188 193.660156 C 43.449219 201.519531 30.417969 203.398438 20.816406 197.25 C 19.300781 196.277344 18.292969 195.128906 19.429688 193.226562 C 21.203125 193.171875 22.476562 194.367188 23.933594 195.011719 C 30.769531 198.039062 37.125 197.085938 42.921875 192.632812 C 49.355469 187.699219 53.027344 181.214844 52.707031 172.910156 C 52.582031 169.644531 52.027344 166.398438 51.625 163.148438 C 51.5625 162.617188 51.375 162.132812 51.0625 161.695312 C 50.730469 161.269531 50.300781 161.007812 49.765625 160.917969 C 49.203125 160.898438 48.746094 161.101562 48.386719 161.535156 C 47.78125 162.859375 47.261719 164.210938 46.828125 165.601562 C 45.925781 168.371094 45.035156 171.144531 43.386719 173.59375 C 41.828125 175.910156 39.890625 177.746094 37.160156 178.632812 C 36.730469 178.800781 36.289062 178.898438 35.832031 178.933594 C 35.375 178.964844 34.921875 178.929688 34.472656 178.828125 C 34.027344 178.726562 33.601562 178.5625 33.203125 178.335938 C 32.804688 178.105469 32.449219 177.828125 32.132812 177.492188 C 30.8125 176.179688 29.921875 174.621094 29.453125 172.820312 C 29.078125 171.644531 28.835938 170.4375 28.726562 169.207031 C 28.621094 167.976562 28.648438 166.75 28.8125 165.523438 C 28.976562 164.300781 29.273438 163.109375 29.699219 161.949219 C 30.128906 160.789062 30.679688 159.691406 31.351562 158.65625 C 33.320312 155.488281 36.164062 153.527344 40.035156 154.308594 C 44.546875 155.222656 47.753906 153.242188 50.683594 150.246094 C 53.277344 147.667969 55.515625 144.808594 57.398438 141.675781 C 59.496094 138.042969 61.453125 134.351562 63.585938 130.773438 C 63.984375 130.160156 64.292969 129.5 64.507812 128.796875 C 64.722656 128.097656 64.835938 127.378906 64.847656 126.644531 C 64.863281 125.910156 64.777344 125.191406 64.589844 124.480469 C 64.402344 123.769531 64.121094 123.101562 63.746094 122.46875 C 62.96875 121.03125 62.089844 119.644531 61.234375 118.253906 C 60.601562 117.367188 60.015625 116.449219 59.480469 115.5 C 58.839844 114.136719 58.679688 112.695312 59.574219 111.34375 C 60.1875 110.421875 61.773438 110.339844 63.585938 111.285156 C 65.394531 112.226562 67.050781 113.28125 68.773438 114.316406 C 70.027344 115.164062 71.414062 115.527344 72.921875 115.398438 C 76.109375 115.042969 81.082031 110.324219 81.617188 107.128906 C 81.722656 106.398438 81.683594 105.671875 81.503906 104.953125 C 81.328125 104.234375 81.019531 103.574219 80.578125 102.976562 C 76.511719 96.988281 71.464844 92.125 64.578125 89.480469 C 63.691406 89.113281 62.773438 88.863281 61.824219 88.722656 C 60.878906 88.585938 59.925781 88.566406 58.972656 88.664062 C 58.019531 88.761719 57.09375 88.976562 56.195312 89.304688 C 55.292969 89.636719 54.449219 90.074219 53.65625 90.613281 C 51.035156 92.300781 48.6875 94.304688 46.609375 96.628906 C 44.53125 98.953125 42.796875 101.507812 41.410156 104.300781 C 39.335938 108.453125 39.769531 112.4375 42.933594 115.949219 C 44.390625 117.570312 46.046875 119.039062 47.472656 120.667969 C 50.117188 123.632812 50.289062 126.148438 48.164062 129.585938 C 46.285156 132.621094 43.535156 134.6875 40.453125 136.335938 C 39.796875 136.644531 39.105469 136.816406 38.378906 136.851562 C 38.148438 136.875 37.917969 136.875 37.691406 136.84375 C 37.460938 136.8125 37.238281 136.757812 37.023438 136.679688 C 36.804688 136.597656 36.601562 136.492188 36.40625 136.363281 C 36.214844 136.238281 36.039062 136.089844 35.882812 135.921875 C 35.722656 135.753906 35.585938 135.566406 35.46875 135.367188 C 35.351562 135.167969 35.261719 134.957031 35.191406 134.738281 C 35.125 134.515625 35.082031 134.289062 35.066406 134.058594 C 35.050781 133.828125 35.058594 133.597656 35.097656 133.371094 C 35.261719 131.6875 36.039062 130.226562 36.828125 128.808594 C 37.652344 127.363281 38.148438 125.816406 38.324219 124.164062 C 38.5 122.511719 38.332031 120.890625 37.828125 119.308594 C 37.574219 118.4375 37.570312 117.476562 37.226562 116.652344 C 35.390625 112.207031 36.429688 108.121094 38.503906 104.066406 C 42.171875 96.824219 47.132812 90.609375 53.386719 85.433594 C 57.246094 82.242188 61.265625 81.992188 65.5625 84.109375 C 68.984375 85.847656 72.097656 88.027344 74.898438 90.65625 C 76.109375 91.761719 77.277344 92.929688 78.566406 93.925781 C 78.964844 94.226562 79.390625 94.488281 79.84375 94.703125 C 80.292969 94.921875 80.761719 95.09375 81.246094 95.21875 C 81.730469 95.34375 82.222656 95.417969 82.722656 95.445312 C 83.222656 95.46875 83.71875 95.445312 84.214844 95.375 C 84.710938 95.300781 85.191406 95.179688 85.664062 95.011719 C 86.132812 94.84375 86.585938 94.628906 87.011719 94.371094 C 87.441406 94.113281 87.839844 93.8125 88.210938 93.476562 C 88.578125 93.136719 88.910156 92.765625 89.207031 92.363281 C 89.511719 91.902344 89.691406 91.394531 89.75 90.84375 C 89.804688 90.292969 89.730469 89.761719 89.523438 89.25 C 88.804688 87.121094 87.574219 85.347656 85.839844 83.921875 C 83.621094 82.042969 81.320312 80.246094 78.964844 78.550781 C 74.972656 75.675781 70.640625 73.359375 66.351562 70.949219 C 60.992188 67.941406 55.90625 68.472656 50.933594 71.746094 C 47.554688 73.957031 44.808594 76.878906 42.058594 79.796875 C 40.214844 81.742188 38.582031 83.910156 36.5 85.503906 C 35.652344 84.871094 35.914062 84.320312 36.082031 83.839844 C 37.1875 80.535156 38.734375 77.449219 40.71875 74.582031 C 42.699219 71.714844 45.042969 69.179688 47.742188 66.980469 C 49.746094 65.355469 51.972656 64.144531 54.425781 63.347656 C 55.898438 62.847656 57.410156 62.597656 58.964844 62.59375 C 60.519531 62.589844 62.035156 62.832031 63.511719 63.320312 C 68.09375 64.746094 72.242188 66.972656 75.964844 70.007812 C 77.949219 71.605469 79.839844 73.324219 81.832031 74.90625 C 82.792969 75.746094 83.855469 76.4375 85.015625 76.980469 C 85.214844 77.066406 85.417969 77.132812 85.625 77.191406 C 85.832031 77.246094 86.042969 77.292969 86.253906 77.320312 C 86.46875 77.351562 86.683594 77.367188 86.898438 77.371094 C 87.113281 77.375 87.328125 77.363281 87.539062 77.339844 C 87.753906 77.3125 87.964844 77.277344 88.175781 77.226562 C 88.382812 77.175781 88.589844 77.109375 88.789062 77.03125 C 88.988281 76.957031 89.183594 76.867188 89.375 76.765625 C 89.5625 76.664062 89.746094 76.546875 89.921875 76.421875 C 90.097656 76.296875 90.261719 76.164062 90.421875 76.015625 C 90.578125 75.871094 90.726562 75.714844 90.863281 75.550781 C 91.003906 75.386719 91.128906 75.210938 91.246094 75.03125 C 91.363281 74.851562 91.46875 74.664062 91.558594 74.46875 C 91.652344 74.273438 91.730469 74.074219 91.800781 73.871094 C 91.867188 73.664062 91.921875 73.457031 91.960938 73.246094 C 92.003906 73.035156 92.03125 72.820312 92.042969 72.605469 C 92.058594 72.390625 92.058594 72.175781 92.042969 71.960938 C 91.960938 70.078125 91.1875 68.4375 90.269531 66.859375 C 88.289062 63.445312 85.320312 61.074219 81.90625 59.234375 C 76.921875 56.554688 71.632812 54.597656 66.277344 52.824219 C 58.78125 50.316406 51.582031 51.308594 44.628906 54.839844 C 43.5 55.414062 42.46875 56.183594 41.339844 56.773438 C 40.214844 57.367188 39.558594 58.730469 38.050781 58.179688 C 37.1875 57.859375 37.664062 55.984375 39.21875 54.421875 C 43.929688 49.699219 49.378906 47.019531 56.339844 47.707031 C 64.6875 48.484375 72.882812 50.074219 80.921875 52.464844 C 89.078125 54.933594 94.328125 60.175781 96.890625 68.230469 C 97.054688 68.75 97.175781 69.269531 97.320312 69.789062 C 98.648438 74.546875 103.445312 75.746094 107.40625 73.457031 C 111.28125 71.214844 112.96875 67.539062 112.40625 63.289062 C 111.402344 55.820312 108.371094 49.347656 101.738281 45.046875 C 97.691406 42.527344 93.355469 40.703125 88.722656 39.570312 C 80.792969 37.496094 72.738281 36.089844 64.484375 36.1875 C 63.210938 36.1875 61.9375 36.152344 60.664062 36.097656 C 60.144531 36.097656 59.527344 36.097656 59.398438 35.457031 C 59.269531 34.8125 59.773438 34.503906 60.324219 34.359375 C 65.5 32.964844 70.726562 32.757812 76 33.746094 C 79.753906 34.4375 83.453125 35.449219 87.214844 36.050781 C 96.261719 37.507812 103.421875 42.195312 109.605469 48.675781 C 111.363281 50.519531 113.085938 52.410156 114.972656 54.105469 C 119.078125 57.808594 122.070312 54.953125 123.035156 51.328125 C 123.796875 48.480469 122.988281 45.921875 121.726562 43.449219 C 119.816406 39.835938 117.160156 36.894531 113.765625 34.625 C 111.6875 33.160156 109.511719 31.828125 107.40625 30.394531 C 107.117188 30.152344 106.972656 29.84375 106.96875 29.472656 C 107.046875 29.132812 107.242188 28.882812 107.550781 28.722656 C 108.914062 28.097656 110.335938 27.925781 111.808594 28.203125 C 116.808594 28.882812 121.296875 30.695312 125.03125 34.152344 C 127.433594 36.375 129.789062 38.660156 132.101562 40.972656 C 134.679688 43.5625 137.511719 45.832031 140.597656 47.777344 C 147.746094 52.261719 155.492188 53.488281 163.652344 51.582031 C 170.171875 50.066406 174.992188 46.019531 178.628906 40.496094 C 178.859375 40.195312 178.988281 39.855469 179.011719 39.480469 C 179.039062 39.101562 178.957031 38.75 178.769531 38.417969 C 178.550781 38 178.230469 37.6875 177.800781 37.488281 C 177.371094 37.289062 176.925781 37.242188 176.464844 37.34375 C 174.527344 37.792969 172.613281 38.382812 170.699219 38.945312 C 167.691406 39.933594 164.640625 40.09375 161.546875 39.425781 C 159.519531 38.972656 157.855469 37.933594 156.550781 36.3125 C 156.332031 36.074219 156.175781 35.796875 156.078125 35.488281 C 155.980469 35.179688 155.949219 34.867188 155.988281 34.542969 C 156.027344 34.222656 156.132812 33.925781 156.304688 33.648438 C 156.472656 33.371094 156.691406 33.144531 156.960938 32.964844 C 157.382812 32.621094 157.84375 32.351562 158.347656 32.148438 C 166.128906 29.515625 174.011719 28.925781 181.917969 31.441406 C 185.640625 32.625 187.277344 36.050781 186.203125 39.648438 C 185.980469 40.449219 185.621094 41.183594 185.128906 41.851562 C 184.636719 42.519531 184.042969 43.078125 183.34375 43.527344 C 181.820312 44.507812 180.179688 45.316406 178.632812 46.269531 C 176.242188 47.730469 176.261719 50.011719 178.722656 51.339844 C 182.457031 53.363281 186.472656 53.121094 190.4375 52.378906 C 192.242188 52.039062 193.929688 51.386719 195.492188 50.421875 C 202.601562 45.96875 208.265625 40.207031 211.054688 32.0625 C 212.042969 29.144531 213.089844 26.238281 213.433594 23.128906 Z M 143.664062 42.011719 C 144.742188 41.308594 145.917969 40.894531 147.199219 40.765625 C 148.816406 40.648438 150.414062 40.410156 151.996094 40.054688 C 152.609375 39.875 153.226562 39.851562 153.847656 39.984375 C 154.472656 40.117188 155.027344 40.386719 155.511719 40.800781 C 158.996094 43.480469 162.992188 44.210938 167.273438 43.917969 C 167.949219 43.894531 168.625 43.910156 169.300781 43.964844 C 168.648438 45.640625 167.039062 46.238281 165.609375 46.734375 C 158.070312 49.371094 150.71875 48.929688 143.710938 44.933594 C 142.28125 44.121094 142.3125 42.859375 143.664062 42.011719 Z M 195.972656 22.867188 C 196.960938 21.21875 198.347656 20.792969 200.078125 20.847656 C 201.167969 20.878906 202.257812 20.847656 203.347656 20.847656 C 204.253906 20.847656 205.167969 20.816406 206.070312 20.847656 C 209.453125 20.996094 209.847656 21.539062 209.136719 24.832031 C 207.289062 33.351562 202.972656 40.257812 195.929688 45.464844 C 194.558594 46.53125 193.0625 47.363281 191.429688 47.960938 C 189.800781 48.554688 188.117188 48.886719 186.382812 48.957031 C 185.835938 48.992188 185.347656 48.835938 184.917969 48.496094 C 184.449219 48.011719 184.917969 47.519531 185.320312 47.136719 C 185.445312 47.003906 185.597656 46.894531 185.726562 46.773438 C 191.074219 41.582031 191.726562 37.949219 188.515625 31.25 C 187.628906 29.402344 187.578125 29.300781 189.417969 28.417969 C 192.109375 27.136719 194.429688 25.402344 195.972656 22.867188 Z M 144.765625 22.234375 C 145.089844 21.78125 145.5 21.433594 146 21.195312 C 146.503906 20.957031 147.03125 20.851562 147.585938 20.886719 C 148.132812 20.886719 148.675781 20.847656 149.214844 20.847656 C 162.285156 20.847656 175.347656 20.847656 188.40625 20.847656 C 189.445312 20.847656 190.597656 20.554688 191.421875 21.527344 C 191.941406 22.132812 191.09375 23.449219 189.429688 24.363281 C 187.679688 25.316406 185.859375 26.128906 184.066406 26.996094 C 182.816406 27.601562 181.597656 27.144531 180.351562 26.910156 C 173.472656 25.589844 166.644531 25.8125 159.867188 27.582031 C 159.164062 27.769531 158.484375 28.027344 157.789062 28.25 C 154.679688 29.289062 152.246094 31.023438 151.808594 34.558594 C 151.585938 36.386719 150.476562 37.050781 148.867188 37.097656 C 145.492188 37.195312 142.421875 38.023438 139.929688 40.453125 C 139.78125 40.632812 139.601562 40.769531 139.394531 40.867188 C 139.1875 40.96875 138.964844 41.019531 138.734375 41.023438 C 138.503906 41.027344 138.285156 40.984375 138.074219 40.890625 C 137.859375 40.800781 137.679688 40.667969 137.523438 40.496094 C 134.722656 37.953125 131.816406 35.496094 129.605469 32.503906 C 130.390625 30.800781 131.90625 30.492188 133.238281 29.996094 C 137.695312 28.332031 141.9375 26.339844 144.765625 22.234375 Z M 90.488281 22.847656 C 91.789062 21.15625 93.355469 20.839844 95.246094 20.84375 C 102.335938 20.84375 109.425781 20.84375 116.515625 20.84375 C 123.242188 20.84375 129.96875 20.84375 136.691406 20.84375 C 137.421875 20.832031 138.144531 20.871094 138.867188 20.96875 C 139.214844 21.039062 139.484375 21.222656 139.675781 21.523438 C 139.738281 21.648438 139.773438 21.777344 139.78125 21.914062 C 139.792969 22.050781 139.777344 22.183594 139.734375 22.316406 C 139.6875 22.445312 139.621094 22.5625 139.53125 22.667969 C 139.441406 22.769531 139.335938 22.851562 139.214844 22.914062 C 138.023438 23.742188 136.792969 24.5 135.519531 25.1875 C 134.234375 25.851562 132.839844 26.304688 131.515625 26.90625 C 129.710938 27.722656 127.921875 29.269531 126.136719 29.257812 C 124.351562 29.246094 122.582031 27.644531 120.761719 26.832031 C 117.90625 25.59375 114.929688 24.816406 111.828125 24.507812 C 108.425781 24.128906 105.320312 24.953125 102.867188 27.53125 C 101.132812 29.351562 101.308594 31.164062 103.46875 32.457031 C 105.023438 33.398438 106.667969 34.183594 108.214844 35.132812 C 111.636719 37.242188 114.871094 39.570312 117.253906 42.921875 C 118.515625 44.527344 119.300781 46.34375 119.605469 48.367188 C 119.648438 49.089844 119.554688 49.792969 119.332031 50.484375 C 119.300781 50.667969 119.226562 50.832031 119.113281 50.980469 C 119 51.128906 118.855469 51.238281 118.6875 51.3125 C 118.515625 51.390625 118.339844 51.417969 118.152344 51.40625 C 117.96875 51.390625 117.796875 51.332031 117.640625 51.230469 C 116.601562 50.496094 115.644531 49.667969 114.769531 48.746094 C 113.359375 47.332031 112.046875 45.8125 110.621094 44.40625 C 104.394531 38.226562 97.132812 34.023438 88.398438 32.496094 C 85.363281 31.976562 82.363281 31.199219 79.359375 30.488281 C 79.027344 30.351562 78.820312 30.105469 78.734375 29.757812 C 78.707031 29.398438 78.816406 29.085938 79.066406 28.828125 C 80.164062 27.746094 81.707031 27.691406 83.066406 27.222656 C 85.84375 26.261719 88.640625 25.230469 90.488281 22.847656 Z M 18.941406 34.292969 C 18.945312 33.574219 18.992188 32.859375 19.085938 32.148438 C 19.574219 28.734375 21.222656 26.042969 24.304688 24.363281 C 25.722656 23.59375 27.164062 22.734375 28.703125 22.355469 C 30.246094 21.976562 32.246094 20.304688 33.664062 22.085938 C 34.847656 23.570312 33.097656 28.726562 31.230469 29.160156 C 26.164062 30.335938 23.378906 33.945312 20.792969 37.941406 C 20.734375 38.066406 20.65625 38.171875 20.550781 38.261719 C 20.449219 38.351562 20.332031 38.417969 20.203125 38.460938 C 20.070312 38.5 19.9375 38.515625 19.800781 38.5 C 19.664062 38.484375 19.539062 38.445312 19.417969 38.378906 C 19.148438 38.15625 18.996094 37.871094 18.960938 37.523438 C 18.902344 36.820312 18.941406 36.089844 18.941406 34.292969 Z M 18.855469 129.582031 L 18.855469 49.9375 C 18.855469 48.847656 18.90625 47.753906 18.855469 46.664062 C 18.8125 46.015625 18.929688 45.398438 19.203125 44.8125 C 19.480469 44.226562 19.882812 43.746094 20.410156 43.367188 C 22.414062 41.75 24.054688 39.824219 25.332031 37.589844 C 26.703125 35.332031 28.496094 33.660156 31.199219 33.09375 C 34.417969 32.417969 36.128906 30.207031 36.90625 27.15625 C 38.671875 20.117188 38.390625 20.839844 45.875 20.796875 C 50.582031 20.769531 55.285156 20.859375 59.984375 20.890625 C 58.382812 23.324219 56.296875 23.746094 54.175781 24.109375 C 52.738281 24.324219 51.320312 24.625 49.921875 25.007812 C 45.125 26.429688 42.140625 29.488281 41.523438 34.605469 C 41.433594 35.324219 41.382812 36.050781 41.273438 36.769531 C 41.210938 37.234375 41.027344 37.640625 40.71875 37.988281 C 40.410156 38.339844 40.03125 38.574219 39.578125 38.695312 C 38.714844 38.96875 37.824219 39.144531 36.953125 39.394531 C 29.792969 41.492188 25.757812 46.589844 25.292969 54.074219 C 25.125 56.835938 25.644531 59.511719 26.203125 62.179688 C 26.425781 63.246094 26.722656 64.289062 27.003906 65.351562 C 27.652344 67.992188 28.886719 70.664062 28.765625 73.269531 C 28.664062 75.667969 27.050781 77.980469 26.171875 80.355469 C 24.433594 85.132812 24.097656 89.980469 26.085938 94.734375 C 27.761719 98.789062 27.40625 102.441406 24.992188 106.101562 C 22.121094 110.441406 21.070312 115.269531 23.367188 120.085938 C 25.441406 124.460938 24.476562 128.144531 22.105469 131.855469 C 21.8125 132.316406 21.585938 132.808594 21.265625 133.261719 C 20.867188 133.84375 20.492188 134.648438 19.710938 134.570312 C 18.734375 134.476562 18.921875 133.53125 18.878906 132.851562 C 18.824219 131.761719 18.855469 130.671875 18.855469 129.582031 Z M 21.261719 139.242188 C 23.734375 136.5625 25.441406 133.308594 27.007812 130 C 28.410156 127.054688 28.683594 124.089844 27.429688 121.03125 C 27.222656 120.511719 27.027344 119.992188 26.800781 119.515625 C 24.984375 115.5 25.671875 111.730469 27.839844 108.058594 C 28.210938 107.433594 28.566406 106.796875 28.933594 106.171875 C 30.980469 102.65625 31.527344 98.941406 29.917969 95.164062 C 27.382812 89.140625 28.085938 83.339844 31.167969 77.847656 C 32.726562 75.046875 32.726562 72.527344 31.796875 69.589844 C 30.738281 66.105469 29.863281 62.578125 29.171875 59 C 28.5625 56.277344 28.648438 53.574219 29.425781 50.894531 C 30.585938 46.886719 33.195312 44.351562 37.082031 43.042969 C 37.765625 42.816406 38.503906 42.734375 39.210938 42.527344 C 43.960938 41.304688 44.265625 40.96875 45.003906 35.996094 C 45.742188 31.023438 47.492188 29.082031 52.421875 27.933594 C 52.773438 27.851562 53.136719 27.804688 53.496094 27.753906 C 53.855469 27.699219 54.222656 27.683594 54.582031 27.628906 C 58.980469 26.957031 63.046875 25.5 66.355469 22.390625 C 67.171875 21.628906 68.003906 20.921875 69.179688 20.921875 C 74.269531 20.921875 79.359375 20.953125 84.449219 21.015625 C 84.789062 21.101562 85.011719 21.3125 85.117188 21.644531 C 85.152344 22.007812 85.03125 22.308594 84.753906 22.550781 C 84.128906 22.925781 83.464844 23.214844 82.765625 23.417969 C 79.402344 24.382812 76.175781 25.546875 73.945312 28.515625 C 73.0625 29.710938 71.695312 29.554688 70.433594 29.527344 C 66.597656 29.476562 62.785156 29.605469 59.078125 30.730469 C 56.972656 31.375 55.066406 32.355469 53.71875 34.226562 C 52.105469 36.46875 52.734375 38.667969 55.382812 39.21875 C 57.53125 39.640625 59.695312 39.835938 61.882812 39.804688 C 66.804688 39.789062 71.703125 40.109375 76.582031 40.765625 C 83.457031 41.664062 90.152344 43.257812 96.511719 46.144531 C 103.375 49.257812 107.113281 54.730469 108.6875 61.921875 C 108.941406 62.902344 109.019531 63.890625 108.917969 64.898438 C 108.8125 65.902344 108.539062 66.855469 108.09375 67.761719 C 107.742188 68.519531 107.246094 69.167969 106.613281 69.710938 C 105.980469 70.253906 105.261719 70.644531 104.464844 70.878906 C 104.160156 70.984375 103.847656 71.035156 103.523438 71.027344 C 103.203125 71.019531 102.890625 70.960938 102.59375 70.839844 C 102.292969 70.722656 102.023438 70.558594 101.78125 70.34375 C 101.542969 70.128906 101.347656 69.878906 101.195312 69.597656 C 100.675781 68.445312 100.324219 67.207031 99.898438 66.007812 C 97.054688 57.949219 91.648438 52.339844 83.5625 49.601562 C 74.214844 46.390625 64.605469 44.53125 54.734375 44.019531 C 47.105469 43.652344 41 47.050781 36.019531 52.519531 C 33.34375 55.449219 33.171875 58.699219 35.042969 61.535156 C 36.242188 63.351562 37.886719 63.746094 39.675781 62.542969 C 40.886719 61.730469 41.972656 60.753906 43.179688 59.945312 C 50.210938 55.164062 57.761719 53.554688 65.972656 56.375 C 70.792969 58.03125 75.589844 59.742188 80.09375 62.164062 C 83.019531 63.71875 85.628906 65.6875 87.3125 68.636719 C 88.113281 70.035156 89.085938 71.496094 87.992188 73.152344 C 87.320312 74.164062 85.898438 73.785156 83.734375 72.007812 C 81.761719 70.394531 79.890625 68.660156 77.882812 67.09375 C 73.851562 63.882812 69.371094 61.507812 64.453125 59.972656 C 62.261719 59.261719 60.019531 58.988281 57.726562 59.152344 C 55.429688 59.316406 53.25 59.902344 51.183594 60.917969 C 49.339844 61.730469 47.613281 62.738281 45.996094 63.9375 C 42.8125 66.414062 40.066406 69.304688 37.757812 72.609375 C 35.449219 75.914062 33.683594 79.488281 32.457031 83.332031 C 31.707031 85.613281 31.351562 87.929688 31.894531 90.285156 C 32.253906 91.886719 33.96875 92.644531 35.257812 91.640625 C 36.675781 90.5 38.007812 89.269531 39.257812 87.945312 C 42.152344 84.917969 44.960938 81.808594 47.835938 78.777344 C 49.589844 76.902344 51.566406 75.304688 53.769531 73.988281 C 57.160156 72.007812 60.613281 71.777344 64.144531 73.628906 C 70.289062 76.84375 76.210938 80.378906 81.605469 84.757812 C 82.871094 85.800781 84.027344 86.953125 85.074219 88.214844 C 85.589844 88.839844 86.296875 89.664062 85.589844 90.640625 C 85.296875 90.988281 84.949219 91.273438 84.546875 91.488281 C 84.144531 91.703125 83.714844 91.835938 83.261719 91.882812 C 82.804688 91.929688 82.359375 91.894531 81.917969 91.769531 C 81.480469 91.640625 81.082031 91.4375 80.71875 91.160156 C 79.625 90.199219 78.53125 89.238281 77.46875 88.246094 C 74.539062 85.472656 71.285156 83.160156 67.703125 81.304688 C 61.847656 78.347656 56.25 78.535156 50.976562 82.960938 C 47.453125 85.867188 44.300781 89.132812 41.519531 92.757812 C 38.738281 96.382812 36.398438 100.273438 34.503906 104.429688 C 32.703125 108.390625 31.992188 112.390625 33.582031 116.605469 C 33.960938 117.640625 34.101562 118.726562 34.386719 119.777344 C 34.820312 121.089844 34.960938 122.433594 34.8125 123.808594 C 34.664062 125.1875 34.238281 126.46875 33.535156 127.660156 C 32.816406 128.933594 32.242188 130.265625 31.8125 131.664062 C 30.027344 137.523438 35.605469 141.820312 40.199219 140.117188 C 45.855469 138.042969 50.3125 134.304688 52.589844 128.554688 C 52.914062 127.789062 53.125 126.996094 53.21875 126.171875 C 53.316406 125.347656 53.289062 124.527344 53.148438 123.710938 C 53.003906 122.894531 52.746094 122.117188 52.375 121.375 C 52 120.632812 51.53125 119.960938 50.964844 119.355469 C 49.40625 117.578125 47.644531 115.980469 46.0625 114.226562 C 43.234375 111.113281 42.910156 108.515625 44.992188 104.789062 C 47.351562 100.601562 50.464844 97.082031 54.332031 94.230469 C 57.71875 91.683594 61.300781 91.359375 65.078125 93.253906 C 69.898438 95.679688 73.71875 99.289062 76.882812 103.585938 C 78.402344 105.660156 78.199219 106.980469 76.496094 108.964844 C 76.140625 109.378906 75.765625 109.773438 75.367188 110.148438 C 73.445312 111.894531 72.222656 112.097656 69.957031 110.890625 C 68.515625 110.121094 67.15625 109.191406 65.734375 108.382812 C 64.300781 107.496094 62.746094 107.023438 61.066406 106.964844 C 58.117188 106.933594 56.171875 108.421875 55.628906 111.261719 C 55.351562 112.527344 55.34375 113.789062 55.609375 115.058594 C 55.871094 116.324219 56.378906 117.480469 57.136719 118.53125 C 58.386719 120.308594 59.511719 122.164062 60.59375 124.082031 C 60.996094 124.714844 61.210938 125.40625 61.238281 126.15625 C 61.265625 126.90625 61.101562 127.609375 60.742188 128.269531 C 57.386719 134.304688 54.519531 140.636719 49.847656 145.875 C 49.246094 146.554688 48.609375 147.203125 47.988281 147.867188 C 45.875 150.09375 43.519531 151.277344 40.230469 150.757812 C 34.941406 149.921875 31.066406 152.484375 28.351562 156.824219 C 27.523438 158.085938 26.847656 159.421875 26.324219 160.839844 C 25.800781 162.253906 25.441406 163.710938 25.246094 165.207031 C 25.050781 166.703125 25.027344 168.203125 25.171875 169.707031 C 25.316406 171.207031 25.628906 172.675781 26.105469 174.109375 C 26.488281 175.328125 27.003906 176.484375 27.664062 177.582031 C 30.773438 182.734375 35.390625 183.90625 40.722656 180.980469 C 43.011719 179.722656 44.71875 177.867188 46.25 175.789062 C 46.945312 174.839844 47.042969 173.261719 48.660156 173.109375 C 49.335938 173.894531 49.179688 174.820312 49.082031 175.671875 C 48.417969 183.296875 42.300781 190.535156 35.074219 192.917969 C 30.644531 194.371094 22.625 191.648438 19.679688 188.007812 C 19.261719 187.414062 19.015625 186.757812 18.941406 186.035156 C 18.84375 185.128906 18.8125 184.222656 18.847656 183.3125 C 18.847656 170.929688 18.902344 158.546875 18.808594 146.164062 C 18.792969 143.464844 19.378906 141.285156 21.261719 139.242188 Z M 21.261719 139.242188 " fill-opacity="1" fill-rule="nonzero"/></g></svg>